<svg xmlns="http://www.w3.org/2000/svg" xmlns:svg="http://www.w3.org/2000/svg" xmlns:xlink="http://www.w3.org/1999/xlink" id="svg2" width="256" height="256" version="1.0"><defs id="defs4"><linearGradient id="linearGradient4445"><stop style="stop-color:#382509;stop-opacity:1" id="stop4447" offset="0"/><stop style="stop-color:#382509;stop-opacity:0" id="stop4449" offset="1"/></linearGradient><linearGradient id="linearGradient4412"><stop style="stop-color:#590000;stop-opacity:1" id="stop4414" offset="0"/><stop style="stop-color:#191104;stop-opacity:1" id="stop4416" offset="1"/></linearGradient><linearGradient id="linearGradient3879"><stop style="stop-color:#4d2600;stop-opacity:1" id="stop3881" offset="0"/><stop style="stop-color:#000;stop-opacity:1" id="stop3883" offset="1"/></linearGradient><linearGradient id="linearGradient3420"><stop style="stop-color:#fff;stop-opacity:1" id="stop3422" offset="0"/><stop style="stop-color:#fff;stop-opacity:0" id="stop3424" offset="1"/></linearGradient><linearGradient id="linearGradient3350"><stop style="stop-color:#fff;stop-opacity:1" id="stop3352" offset="0"/><stop style="stop-color:#fff;stop-opacity:0" id="stop3354" offset="1"/></linearGradient><linearGradient id="linearGradient3157"><stop style="stop-color:#fff290;stop-opacity:1" id="stop3159" offset="0"/><stop id="stop3178" offset=".6" style="stop-color:#fed611;stop-opacity:1"/><stop style="stop-color:#f9c820;stop-opacity:1" id="stop3180" offset=".84"/><stop id="stop3182" offset=".92" style="stop-color:#f4a222;stop-opacity:1"/><stop style="stop-color:#d98b15;stop-opacity:1" id="stop3161" offset="1"/></linearGradient><radialGradient id="radialGradient3196" cx="70" cy="70" r="54" fx="70" fy="32.5" gradientTransform="translate(-4.5000002e-6,-1.0137567e-6)" gradientUnits="userSpaceOnUse" xlink:href="#linearGradient3157"/><filter id="filter3255"><feGaussianBlur id="feGaussianBlur3257" stdDeviation="1.1"/></filter><filter id="filter3282"><feGaussianBlur id="feGaussianBlur3284" stdDeviation="2.16"/></filter><clipPath id="clipPath3327" clipPathUnits="userSpaceOnUse"><path id="path3329" d="M 124,70 A 54,54 0 1 1 16,70 A 54,54 0 1 1 124,70 z" transform="matrix(1.8518517,0,0,1.8518517,-1.6296136,-5.6296246)" style="opacity:1;fill:#fff;fill-opacity:1;stroke:none;stroke-width:.80000001;stroke-linecap:round;stroke-linejoin:round;stroke-miterlimit:4;stroke-dasharray:none;stroke-opacity:1"/></clipPath><filter id="filter3338"><feGaussianBlur id="feGaussianBlur3340" stdDeviation="3.2"/></filter><radialGradient id="radialGradient3356" cx="128" cy="-2.667" r="100" fx="128" fy="-2.667" gradientTransform="matrix(1.6885793,0,0,1.0131476,-88.138148,34.701725)" gradientUnits="userSpaceOnUse" xlink:href="#linearGradient3350"/><clipPath id="clipPath3371" clipPathUnits="userSpaceOnUse"><path id="path3373" d="M 124,70 A 54,54 0 1 1 16,70 A 54,54 0 1 1 124,70 z" transform="matrix(1.851852,0,0,1.851852,-1.6296317,-5.6296427)" style="opacity:1;fill:#fff;fill-opacity:1;stroke:none;stroke-width:.80000001;stroke-linecap:round;stroke-linejoin:round;stroke-miterlimit:4;stroke-dasharray:none;stroke-opacity:1"/></clipPath><filter id="filter3406"><feGaussianBlur id="feGaussianBlur3408" stdDeviation="3"/></filter><filter id="filter3414"><feGaussianBlur id="feGaussianBlur3416" stdDeviation="6"/></filter><radialGradient id="radialGradient3426" cx="70" cy="70" r="54" fx="70" fy="70" gradientTransform="matrix(1.4447581,0.1160208,-0.2610466,1.4447582,-12.859807,-39.254529)" gradientUnits="userSpaceOnUse" xlink:href="#linearGradient3420"/><filter id="filter3448" width="1.638" height="1.728" x="-.319" y="-.364"><feGaussianBlur id="feGaussianBlur3450" stdDeviation="15.667"/></filter><radialGradient id="radialGradient3474" cx="70" cy="70" r="54" fx="70" fy="70" gradientTransform="matrix(1.4447581,0.1160208,-0.2610466,1.4447582,-12.859807,-39.254529)" gradientUnits="userSpaceOnUse" xlink:href="#linearGradient3420"/><radialGradient id="radialGradient4051" cx="132" cy="136" r="4" fx="132" fy="133.375" gradientTransform="matrix(1.1990521,0,0,5,-26.274882,-544)" gradientUnits="userSpaceOnUse" xlink:href="#linearGradient3879"/><filter id="filter4206" width="1.688" height="1.947" x="-.344" y="-.473"><feGaussianBlur id="feGaussianBlur4208" stdDeviation="1.8"/></filter><filter id="filter4248" width="1.275" height="1.055" x="-.137" y="-.027"><feGaussianBlur id="feGaussianBlur4250" stdDeviation=".458"/></filter><linearGradient id="linearGradient4280" x1="130.109" x2="130.109" y1="116" y2="162.642" gradientUnits="userSpaceOnUse" xlink:href="#linearGradient3420"/><radialGradient id="radialGradient4428" cx="127.982" cy="215.576" r="64.807" fx="127.982" fy="215.576" gradientTransform="matrix(1,0,0,0.320543,0,104.44105)" gradientUnits="userSpaceOnUse" xlink:href="#linearGradient4412"/><filter id="filter4439" width="1.077" height="1.27" x="-.039" y="-.135"><feGaussianBlur id="feGaussianBlur4441" stdDeviation="1.832"/></filter><radialGradient id="radialGradient4451" cx="64" cy="133" r="7" fx="61.5" fy="129" gradientUnits="userSpaceOnUse" xlink:href="#linearGradient4445"/><radialGradient id="radialGradient4455" cx="64" cy="133" r="7" fx="61.5" fy="129" gradientUnits="userSpaceOnUse" xlink:href="#linearGradient4445"/><linearGradient id="linearGradient2796" x1="128" x2="42.519" y1="164" y2="164" gradientTransform="matrix(0.9818182,0,0,1,2.3272722,0)" gradientUnits="userSpaceOnUse" spreadMethod="reflect" xlink:href="#linearGradient3191"/><linearGradient id="linearGradient2794" x1="137.942" x2="137.942" y1="143" y2="147.134" gradientUnits="userSpaceOnUse" xlink:href="#linearGradient3413"/><linearGradient id="linearGradient2792" x1="71.858" x2="128.109" y1="164" y2="164" gradientTransform="matrix(0.9818182,0,0,1,2.3272722,0)" gradientUnits="userSpaceOnUse" spreadMethod="reflect" xlink:href="#linearGradient6699"/><radialGradient id="radialGradient2790" cx="128" cy="166.448" r="76.545" fx="128" fy="230.953" gradientTransform="matrix(1.5831925,-1.5177422e-8,0,0.5813539,-74.648639,66.234777)" gradientUnits="userSpaceOnUse" xlink:href="#linearGradient4031"/><radialGradient id="radialGradient2788" cx="128" cy="181.061" r="76.545" fx="128" fy="181.061" gradientTransform="matrix(1.0589958,3.6583493e-8,-2.4821853e-8,0.7185273,-7.551461,43.402517)" gradientUnits="userSpaceOnUse" xlink:href="#linearGradient3572"/><filter id="filter6775"><feGaussianBlur id="feGaussianBlur6777" stdDeviation="1.16"/></filter><filter id="filter6669"><feGaussianBlur id="feGaussianBlur6671" stdDeviation="1.817"/></filter><linearGradient id="linearGradient6616" x1="71.858" x2="128.109" y1="164" y2="164" gradientTransform="matrix(0.9818182,0,0,1,2.3272722,0)" gradientUnits="userSpaceOnUse" spreadMethod="reflect" xlink:href="#linearGradient6418"/><clipPath id="clipPath6612" clipPathUnits="userSpaceOnUse"><path style="opacity:1;fill:url(#linearGradient6616);fill-opacity:1;stroke:none;stroke-width:20;stroke-linecap:round;stroke-linejoin:round;stroke-miterlimit:4;stroke-dasharray:none;stroke-opacity:0" id="path6614" d="M 128,120 C 103.40867,120 79.642872,120.62629 57.096875,121.80469 C 56.370779,125.98022 56,130.27989 56,134.66667 C 56,175.14667 88.255999,208 128,208 C 167.744,208 200.00001,175.14667 200,134.66667 C 200,130.27989 199.62922,125.98022 198.90313,121.80469 C 176.35713,120.62629 152.59133,120 128,120 z"/></clipPath><linearGradient id="linearGradient4031"><stop id="stop4033" offset="0" style="stop-color:#fff;stop-opacity:0"/><stop style="stop-color:#fff;stop-opacity:0" id="stop4037" offset=".5"/><stop id="stop4035" offset="1" style="stop-color:#000;stop-opacity:1"/></linearGradient><linearGradient id="linearGradient3413"><stop id="stop3415" offset="0" style="stop-color:#000;stop-opacity:1"/><stop id="stop3417" offset="1" style="stop-color:#000;stop-opacity:0"/></linearGradient><filter id="filter3773" width="1.158" height="1.28" x="-.079" y="-.14"><feGaussianBlur id="feGaussianBlur3775" stdDeviation="1.039"/></filter><linearGradient id="linearGradient3191"><stop id="stop3193" offset="0" style="stop-color:#fffeee;stop-opacity:1"/><stop style="stop-color:#fffeee;stop-opacity:.79069769" id="stop6709" offset=".32"/><stop id="stop3195" offset="1" style="stop-color:#fffeee;stop-opacity:0"/></linearGradient><linearGradient id="linearGradient3874"><stop id="stop3876" offset="0" style="stop-color:#382509;stop-opacity:1"/><stop id="stop3878" offset="1" style="stop-color:#382509;stop-opacity:0"/></linearGradient><linearGradient id="linearGradient4034"><stop id="stop4036" offset="0" style="stop-color:#170c03;stop-opacity:1"/><stop id="stop4038" offset="1" style="stop-color:#4e330c;stop-opacity:1"/></linearGradient><linearGradient id="linearGradient5268"><stop id="stop5270" offset="0" style="stop-color:#fff;stop-opacity:1"/><stop id="stop5272" offset="1" style="stop-color:#fff;stop-opacity:0"/></linearGradient><linearGradient id="linearGradient3572"><stop id="stop3574" offset="0" style="stop-color:#fffcca;stop-opacity:1"/><stop style="stop-color:#ffd81b;stop-opacity:1" id="stop3576" offset=".3"/><stop id="stop3578" offset=".75" style="stop-color:#f9d93b;stop-opacity:1"/><stop id="stop3580" offset="1" style="stop-color:#f49b23;stop-opacity:1"/></linearGradient><linearGradient id="linearGradient6418"><stop id="stop6420" offset="0" style="stop-color:#eee;stop-opacity:1"/><stop id="stop6422" offset="1" style="stop-color:#fff;stop-opacity:1"/></linearGradient><linearGradient id="linearGradient6699"><stop style="stop-color:#e0e0e0;stop-opacity:1" id="stop6701" offset="0"/><stop style="stop-color:#fff;stop-opacity:1" id="stop6703" offset="1"/></linearGradient><radialGradient id="radialGradient3130" cx="132" cy="136" r="4" fx="132" fy="133.375" gradientTransform="matrix(1.1990521,0,0,5,-26.274882,-544)" gradientUnits="userSpaceOnUse" xlink:href="#linearGradient3879"/><linearGradient id="linearGradient3132" x1="130.109" x2="130.109" y1="116" y2="162.642" gradientUnits="userSpaceOnUse" xlink:href="#linearGradient3420"/><radialGradient id="radialGradient3140" cx="107" cy="381.531" r="8" fx="107" fy="381.531" gradientTransform="matrix(1.9774429,0,0,1.1118594,-107.58639,-330.31424)" gradientUnits="userSpaceOnUse" xlink:href="#linearGradient4034"/><radialGradient id="radialGradient3142" cx="107" cy="373.495" r="8" fx="107" fy="373.495" gradientTransform="matrix(1.6361647,0,0,0.8629962,-71.069626,-236.32516)" gradientUnits="userSpaceOnUse" xlink:href="#linearGradient5268"/><radialGradient id="radialGradient3144" cx="105.899" cy="96.837" r="8.899" fx="105.899" fy="89.718" gradientTransform="matrix(1.9024825,0,0,1.1757985,-95.572162,-14.860661)" gradientUnits="userSpaceOnUse" xlink:href="#linearGradient3874"/><radialGradient id="radialGradient3170" cx="128" cy="181.061" r="76.545" fx="128" fy="181.061" gradientTransform="matrix(1.0589958,3.6583493e-8,-2.4821853e-8,0.7185273,-7.551461,43.402517)" gradientUnits="userSpaceOnUse" xlink:href="#linearGradient3572"/><radialGradient id="radialGradient3172" cx="128" cy="166.448" r="76.545" fx="128" fy="230.953" gradientTransform="matrix(1.5831925,-1.5177422e-8,0,0.5813539,-74.648639,66.234777)" gradientUnits="userSpaceOnUse" xlink:href="#linearGradient4031"/><linearGradient id="linearGradient3174" x1="71.858" x2="128.109" y1="164" y2="164" gradientTransform="matrix(0.9818182,0,0,1,2.3272722,0)" gradientUnits="userSpaceOnUse" spreadMethod="reflect" xlink:href="#linearGradient6699"/><linearGradient id="linearGradient3176" x1="137.942" x2="137.942" y1="143" y2="147.134" gradientUnits="userSpaceOnUse" xlink:href="#linearGradient3413"/><linearGradient id="linearGradient3178" x1="128" x2="42.519" y1="164" y2="164" gradientTransform="matrix(0.9818182,0,0,1,2.3272722,0)" gradientUnits="userSpaceOnUse" spreadMethod="reflect" xlink:href="#linearGradient3191"/><radialGradient id="radialGradient3180" cx="107" cy="381.531" r="8" fx="107" fy="381.531" gradientTransform="matrix(1.9774429,0,0,1.1118594,-107.58639,-330.31424)" gradientUnits="userSpaceOnUse" xlink:href="#linearGradient4034"/><radialGradient id="radialGradient3182" cx="107" cy="373.495" r="8" fx="107" fy="373.495" gradientTransform="matrix(1.6361647,0,0,0.8629962,-71.069626,-236.32516)" gradientUnits="userSpaceOnUse" xlink:href="#linearGradient5268"/><radialGradient id="radialGradient3184" cx="105.899" cy="96.837" r="8.899" fx="105.899" fy="89.718" gradientTransform="matrix(1.9024825,0,0,1.1757985,-95.572162,-14.860661)" gradientUnits="userSpaceOnUse" xlink:href="#linearGradient3874"/><radialGradient id="radialGradient3201" cx="107" cy="381.531" r="8" fx="107" fy="381.531" gradientTransform="matrix(1.9774429,0,0,1.1118594,-107.58639,-330.31424)" gradientUnits="userSpaceOnUse" xlink:href="#linearGradient4034"/><radialGradient id="radialGradient3203" cx="107" cy="373.495" r="8" fx="107" fy="373.495" gradientTransform="matrix(1.6361647,0,0,0.8629962,-71.069626,-236.32516)" gradientUnits="userSpaceOnUse" xlink:href="#linearGradient5268"/><radialGradient id="radialGradient3205" cx="105.899" cy="96.837" r="8.899" fx="105.899" fy="89.718" gradientTransform="matrix(1.9024825,0,0,1.1757985,-95.572162,-14.860661)" gradientUnits="userSpaceOnUse" xlink:href="#linearGradient3874"/></defs><metadata id="metadata7"/><g id="layer1"><g id="g4354"><path style="opacity:1;fill:#000;fill-opacity:1;stroke:none;stroke-width:2;stroke-linecap:round;stroke-linejoin:round;stroke-miterlimit:4;stroke-dasharray:none;stroke-opacity:1;filter:url(#filter3255)" id="path3245" d="M 124,70 A 54,54 0 1 1 16,70 A 54,54 0 1 1 124,70 z" transform="matrix(1.9673186,0,0,1.9673186,-9.7123014,-10.072502)"/><path style="opacity:1;fill:#ffbf00;fill-opacity:1;stroke:none;stroke-width:.80000000999999998;stroke-linecap:round;stroke-linejoin:round;stroke-miterlimit:4;stroke-dasharray:none;stroke-opacity:1;filter:url(#filter3282)" id="path3276" d="M 124,70 A 54,54 0 1 1 16,70 A 54,54 0 1 1 124,70 z" transform="matrix(1.9999999,0,0,1.9999999,-11.999986,-15.999997)"/><path id="path2385" d="M 124,70 A 54,54 0 1 1 16,70 A 54,54 0 1 1 124,70 z" transform="matrix(1.9999999,0,0,1.9999999,-11.999993,-15.999998)" style="opacity:1;fill:url(#radialGradient3196);fill-opacity:1;stroke:none;stroke-width:.80000001;stroke-linecap:round;stroke-linejoin:round;stroke-miterlimit:4;stroke-dasharray:none;stroke-opacity:1"/><g style="filter:url(#filter3338)" id="g3331"><path style="opacity:1;fill:url(#radialGradient3356);fill-opacity:1;stroke:none;stroke-width:.80000000999999998;stroke-linecap:round;stroke-linejoin:round;stroke-miterlimit:4;stroke-dasharray:none;stroke-opacity:1" id="path3299" d="M 128 24 C 72.800005 24 28.000001 68.800003 28 124 C 28 124.46768 28.024839 124.94009 28.03125 125.40625 C 55.920317 137.08854 90.518213 144 128 144 C 165.48179 144 200.07968 137.08854 227.96875 125.40625 C 227.97516 124.94009 228 124.46768 228 124 C 228 68.800005 183.2 23.999999 128 24 z" clip-path="url(#clipPath3327)"/></g><g style="filter:url(#filter3406)" id="g3399"><path style="opacity:1;fill:#fff;fill-opacity:1;stroke:none;stroke-width:.80000000999999998;stroke-linecap:round;stroke-linejoin:round;stroke-miterlimit:4;stroke-dasharray:none;stroke-opacity:1;filter:url(#filter3414)" id="path3362" d="M 128 24 C 72.799996 24 28 68.799993 28 124 C 28 124.35326 27.996339 124.7101 28 125.0625 C 28.586039 78.022429 73.16436 40 128 40 C 182.83563 40 227.41396 78.022429 228 125.0625 C 228.00366 124.7101 228 124.35326 228 124 C 228 68.799996 183.2 24.000001 128 24 z M 29.15625 139.09375 C 36.443114 187.1371 77.932665 224 128 224 C 178.06733 224 219.55689 187.1371 226.84375 139.09375 C 219.50525 180.35983 178.025 212 128 212 C 77.97499 212 36.494751 180.35983 29.15625 139.09375 z" clip-path="url(#clipPath3371)"/></g><path style="opacity:1;fill:url(#radialGradient3426);fill-opacity:1;stroke:none;stroke-width:.80000001;stroke-linecap:round;stroke-linejoin:round;stroke-miterlimit:4;stroke-dasharray:none;stroke-opacity:1;filter:url(#filter3448)" id="path3418" d="M 124,70 A 54,54 0 1 1 16,70 A 54,54 0 1 1 124,70 z" transform="matrix(0.2012495,8.5970649e-2,-0.1289559,0.3018741,51.93946,54.85086)"/><path id="path3470" d="M 124,70 A 54,54 0 1 1 16,70 A 54,54 0 1 1 124,70 z" transform="matrix(-0.2012495,8.5970649e-2,0.1289559,0.3018741,204.06055,54.85086)" style="opacity:1;fill:url(#radialGradient3474);fill-opacity:1;stroke:none;stroke-width:.80000001;stroke-linecap:round;stroke-linejoin:round;stroke-miterlimit:4;stroke-dasharray:none;stroke-opacity:1;filter:url(#filter3448)"/></g><g id="g3783" transform="translate(-0.99999,-7.91504)" style="display:inline"><g id="g3744"><path id="path3716" d="M 104,87.5 C 95.267612,87.5 88.180457,94.653297 88.180457,103.48064 C 88.180457,104.08486 88.177586,104.70289 88.242252,105.28977 C 89.109867,98.898497 95.855961,93.93246 104,93.93246 C 112.14405,93.932444 118.89013,98.898512 119.75774,105.28977 C 119.8224,104.70289 119.81954,104.08486 119.81954,103.48064 C 119.81954,94.653314 112.73238,87.499984 104,87.5 z" transform="matrix(0.966592,0,0,0.8875759,3.4744385,10.337114)" style="opacity:1;fill:#fff;fill-opacity:1;stroke:none;stroke-width:2;stroke-linecap:round;stroke-linejoin:round;stroke-miterlimit:4;stroke-dasharray:none;stroke-opacity:1;filter:url(#filter3773)"/><path style="opacity:1;fill:url(#radialGradient3201);fill-opacity:1;stroke:none;stroke-width:2;stroke-linecap:round;stroke-linejoin:round;stroke-miterlimit:4;stroke-dasharray:none;stroke-opacity:1" id="path2927" d="M 104,85 C 95.267612,85 88.180457,92.153297 88.180457,100.98064 C 88.180457,101.58486 88.177586,102.20289 88.242252,102.78977 C 89.109867,96.398497 95.855961,91.43246 104,91.43246 C 112.14405,91.432444 118.89013,96.398512 119.75774,102.78977 C 119.8224,102.20289 119.81954,101.58486 119.81954,100.98064 C 119.81954,92.153314 112.73238,84.999984 104,85 z"/><path style="opacity:1;fill:url(#radialGradient3203);fill-opacity:1;stroke:none;stroke-width:2;stroke-linecap:round;stroke-linejoin:round;stroke-miterlimit:4;stroke-dasharray:none;stroke-opacity:1" id="path3706" d="M 104,86 C 101.18193,86.000001 98.69469,86.906191 97.15625,88.25 C 97.767914,88.531597 98.429942,88.764039 99.125,88.96875 C 100.50728,88.475917 102.18465,88.1875 104,88.1875 C 105.87337,88.187499 107.59373,88.509338 109,89.03125 C 109.696,88.837123 110.35276,88.61436 110.96875,88.34375 C 109.44148,86.942261 106.88882,85.999997 104,86 z"/><path id="path3777" d="M 114.79838,102.5 A 8.8991871,5.5 0 1 1 97.000006,102.5 A 8.8991871,5.5 0 1 1 114.79838,102.5 z" transform="translate(-1.9999993,-3.9999994)" style="opacity:.04954954;fill:url(#radialGradient3205);fill-opacity:1;stroke:none;stroke-width:2;stroke-linecap:round;stroke-linejoin:round;stroke-miterlimit:4;stroke-dasharray:none;stroke-opacity:1"/></g><use id="use3781" width="256" height="336" x="0" y="0" transform="translate(50,0)" xlink:href="#g3744"/></g><g id="g6634" transform="translate(0,-8.08496)"><path id="path6630" d="M 128,123 C 103.12922,123 79.093359,123.63341 56.291158,124.8252 C 55.55681,129.04818 55.181818,133.39671 55.181818,137.83334 C 55.181818,178.77334 87.804363,212 128,212 C 168.19564,212 200.81819,178.77334 200.81818,137.83334 C 200.81818,133.39671 200.44318,129.04818 199.70885,124.8252 C 176.90664,123.63341 152.87078,123 128,123 z" style="opacity:.56756759;fill:#fff;fill-opacity:1;stroke:none;stroke-width:20;stroke-linecap:round;stroke-linejoin:round;stroke-miterlimit:4;stroke-dasharray:none;stroke-opacity:0;filter:url(#filter6669)"/><path id="path6550" d="M 128,118.5 C 101.85618,118.5 76.590022,119.13342 52.620667,120.3252 C 51.848732,124.54819 51.454545,128.89672 51.454545,133.33333 C 51.454545,174.27333 85.746908,207.5 128,207.5 C 170.25309,207.5 204.54547,174.27333 204.54545,133.33333 C 204.54545,128.89672 204.15127,124.54819 203.37933,120.3252 C 179.40998,119.13342 154.14382,118.5 128,118.5 z" style="opacity:1;fill:url(#radialGradient3170);fill-opacity:1;stroke:none;stroke-width:20;stroke-linecap:round;stroke-linejoin:round;stroke-miterlimit:4;stroke-dasharray:none;stroke-opacity:0"/><path style="opacity:.21171169;fill:url(#radialGradient3172);fill-opacity:1;stroke:none;stroke-width:20;stroke-linecap:round;stroke-linejoin:round;stroke-miterlimit:4;stroke-dasharray:none;stroke-opacity:0" id="path6556" d="M 128,118.5 C 101.85618,118.5 76.590022,119.13342 52.620667,120.3252 C 51.848732,124.54819 51.454545,128.89672 51.454545,133.33333 C 51.454545,174.27333 85.746908,207.5 128,207.5 C 170.25309,207.5 204.54547,174.27333 204.54545,133.33333 C 204.54545,128.89672 204.15127,124.54819 203.37933,120.3252 C 179.40998,119.13342 154.14382,118.5 128,118.5 z"/><path style="opacity:1;fill:url(#linearGradient3174);fill-opacity:1;stroke:none;stroke-width:20;stroke-linecap:round;stroke-linejoin:round;stroke-miterlimit:4;stroke-dasharray:none;stroke-opacity:0" id="path6413" d="M 128,120 C 103.40867,120 79.642872,120.62629 57.096875,121.80469 C 56.370779,125.98022 56,130.27989 56,134.66667 C 56,175.14667 88.255999,208 128,208 C 167.744,208 200.00001,175.14667 200,134.66667 C 200,130.27989 199.62922,125.98022 198.90313,121.80469 C 176.35713,120.62629 152.59133,120 128,120 z"/><path id="path6673" d="M 128,143 C 103.65588,143 79.817861,143.39363 56.625,144.125 C 56.752299,145.13028 56.895599,146.13286 57.0625,147.125 C 80.101901,146.38733 103.79919,146 128,146 C 152.20081,146 175.8981,146.38733 198.9375,147.125 C 199.1044,146.13286 199.2477,145.13028 199.375,144.125 C 176.18214,143.39363 152.34411,143 128,143 z" style="opacity:.2837838;fill:url(#linearGradient3176);fill-opacity:1;stroke:none;stroke-width:20;stroke-linecap:round;stroke-linejoin:round;stroke-miterlimit:4;stroke-dasharray:none;stroke-opacity:0"/><path id="path6705" d="M 128,120 C 103.40867,120 79.642872,120.62629 57.096875,121.80469 C 56.370779,125.98022 56,130.27989 56,134.66667 C 56,175.14667 88.255999,208 128,208 C 167.744,208 200.00001,175.14667 200,134.66667 C 200,130.27989 199.62922,125.98022 198.90313,121.80469 C 176.35713,120.62629 152.59133,120 128,120 z" style="opacity:1;fill:url(#linearGradient3178);fill-opacity:1;stroke:none;stroke-width:20;stroke-linecap:round;stroke-linejoin:round;stroke-miterlimit:4;stroke-dasharray:none;stroke-opacity:0"/><path style="opacity:.2342342;fill:none;fill-opacity:1;stroke:#000;stroke-width:3;stroke-linecap:round;stroke-linejoin:round;stroke-miterlimit:4;stroke-dasharray:none;stroke-opacity:1;filter:url(#filter6775)" id="path6610" d="M 128,120 C 103.40867,120 79.642872,120.62629 57.096875,121.80469 C 56.370779,125.98022 56,130.27989 56,134.66667 C 56,175.14667 88.255999,208 128,208 C 167.744,208 200.00001,175.14667 200,134.66667 C 200,130.27989 199.62922,125.98022 198.90313,121.80469 C 176.35713,120.62629 152.59133,120 128,120 z" clip-path="url(#clipPath6612)"/></g></g></svg>